<svg width="838" height="413" viewBox="0 0 838 413" xmlns="http://www.w3.org/2000/svg"><g fill="#000"><path d="M258 180.007c0-4.422 3.586-8.007 8.004-8.007h71.993c4.42 0 8.004 3.582 8.004 8.007v57.986c0 4.422-3.586 8.007-8.004 8.007h-71.993c-4.42 0-8.004-3.582-8.004-8.007v-57.986zm-219.703-43.663s-8.546 2.325-9.791 3.396c-4.13 3.551-6.334 10.468-6.334 10.468s-4.764 33.401-8.477 49.635c-3.209 14.032-12.289 41.162-12.289 41.162l-1 129.066 70.969.742v12.637h36.109s3.358 29.25 31.876 29.25c28.519 0 28.519-28.508 28.519-28.508l39.301.484s.605 28.023 28.602 28.023 30.531-28.766 30.531-28.766l302.336-1.449s0 30.215 29.707 29.957c29.707-.258 28.648-27.957 28.648-27.957l37.598.258s0 24.978 28.976 27.165c28.976 2.187 30.313-29.13 30.313-29.13l38.598.742.738-11.676 72.934-1.258 1.223-122.648s-10.503-30.264-14.069-43.286c-6.063-22.142-14.818-62.207-14.818-62.207s-4.555-3.372-7.315-4.706c-2.023-.977-9.032-2.228-9.032-2.228l-280.277 1.48s-2.964-5.762-5.37-8.286c-2.859-2.999-10.427-8.284-10.427-8.284l-158.984-1.484s-8.498 4.487-11.247 7.231c-2.7 2.695-5.101 9.085-5.101 9.085l-282.445 1.09zm4.741 36.338c1.312-.878 4.935-1.635 4.935-1.635l27.931-.8s10.283 2.277 10.283 9.224v56.635s-1.387 10.144-10.247 10.144-38.243-1.338-38.243-1.338-9.464-1.719-9.464-11.463 12.502-57.555 12.502-57.555 1.202-2.475 2.303-3.212zm746.052 0c-1.312-.878-4.935-1.635-4.935-1.635l-27.931-.8s-10.283 2.277-10.283 9.224v56.635s1.387 10.144 10.247 10.144 38.243-1.338 38.243-1.338 9.464-1.719 9.464-11.463-12.502-57.555-12.502-57.555-1.202-2.475-2.303-3.212zm-678.089 8.311c0-4.414 3.588-7.992 7.994-7.992h40.013c4.415 0 7.994 3.591 7.994 7.992v170.016c0 4.414-3.588 7.992-7.994 7.992h-40.013c-4.415 0-7.994-3.591-7.994-7.992v-170.016zm70-3c0-4.414 3.588-7.992 7.994-7.992h40.013c4.415 0 7.994 3.591 7.994 7.992v170.016c0 4.414-3.588 7.992-7.994 7.992h-40.013c-4.415 0-7.994-3.591-7.994-7.992v-170.016zm414 0c0-4.414 3.588-7.992 7.994-7.992h40.013c4.415 0 7.994 3.591 7.994 7.992v170.016c0 4.414-3.588 7.992-7.994 7.992h-40.013c-4.415 0-7.994-3.591-7.994-7.992v-170.016zm70 0c0-4.414 3.588-7.992 7.994-7.992h40.013c4.415 0 7.994 3.591 7.994 7.992v170.016c0 4.414-3.588 7.992-7.994 7.992h-40.013c-4.415 0-7.994-3.591-7.994-7.992v-170.016zm-182 1.263c0-4.422 3.586-8.007 8.004-8.007h71.993c4.42 0 8.004 3.582 8.004 8.007v57.986c0 4.422-3.586 8.007-8.004 8.007h-71.993c-4.42 0-8.004-3.582-8.004-8.007v-57.986zm-111.94.002c0-4.422 3.586-8.007 8.004-8.007h71.993c4.42 0 8.004 3.582 8.004 8.007v57.986c0 4.422-3.586 8.007-8.004 8.007h-71.993c-4.42 0-8.004-3.582-8.004-8.007v-57.986z"/><path d="M397.598 120.832l-66.742-46.008 67.551-45.527 1.742-23.695 5.965-5.227h18.348l7.191 8.449 2.223 17.605 66.516 48.461-68.703 46.461-34.09-.52zm17.359-80.996l-58.426 35.887 56.133 34.887 61.84-34.594-57.941-36.371-1.605.191z"/></g></svg>